<?xml version="1.0" encoding="UTF-8" standalone="no"?>
<svg xmlns="http://www.w3.org/2000/svg" enable-background="new 0 0 256 43" viewBox="0 0 256 43">
  <path d="m21.3.2c-11.8 0-21.3 9.5-21.3 21.3s9.6 21.3 21.3 21.3c11.8 0 21.3-9.6 21.3-21.3 0-11.8-9.6-21.3-21.3-21.3z"/>
  <g fill="#fff">
    <path d="m7.6 7.8c3.7-3.7 8.6-5.7 13.7-5.7s10.1 2 13.7 5.7c3.3 3.3 5.3 7.6 5.6 12.3h-10.2c-.3-1.9-1.2-3.7-2.6-5.1-1.8-1.7-4.1-2.7-6.5-2.7-4.6 0-8.4 3.4-9.1 7.8h-10.2c.3-4.7 2.2-9 5.6-12.3z"/>
    <path d="m27.6 21.5c0 3.5-2.8 6.3-6.3 6.3-1.7 0-3.3-.7-4.5-1.9s-1.9-2.8-1.9-4.5.7-3.3 1.9-4.5 2.8-1.8 4.5-1.9c1.7 0 3.3.7 4.5 1.8 1.2 1.4 1.8 3 1.8 4.7z"/>
    <path d="m21.3 40.9c-5.2 0-10.1-2-13.7-5.7-3.4-3.3-5.3-7.6-5.6-12.2h10.2c.3 1.9 1.2 3.7 2.6 5.1 1.7 1.7 4.1 2.7 6.5 2.7 2.5 0 4.8-1 6.5-2.7 1.4-1.4 2.3-3.2 2.6-5.1h10.2c-.7 10-9.1 17.9-19.3 17.9z"/>
  </g>
  <path d="m21.3 3.4c-1.9 0-3.6.3-5.3.8l3.6.7-8.1 1.6 5.2 1-8.3 1.6 5.6 1.1-7.7 1.5 5.8 1.1-7.2 1.4 5.6 1.1-6.6 1.3v.1l5.2 1-5.7 1.1v.1h7.6c1.1-4.6 5.3-8.1 10.3-8.1s9.2 3.4 10.3 8.1h7.6c-1.2-8.7-8.8-15.5-17.9-15.5z" fill="#ed1c24"/>
  <path d="m31.9 25.4 5.3 1-6.5 1.3 5.6 1.1-8 1.6 6.2 1.2-9.3 1.8 6.4 1.2-9.2 1.8 4.9 1-9.3 1.9c1 .2 2.2.3 3.3.3 2.8 0 5.4-.6 7.8-1.8.7-.3 1.3-.7 1.9-1.1.8-.5 1.6-1.1 2.3-1.7.3-.2.5-.5.8-.8.7-.7 1.4-1.5 1.9-2.3.2-.2.3-.4.5-.7.4-.7.8-1.4 1.2-2.1.1-.2.2-.4.3-.6.2-.6.4-1.2.6-1.8 0-.2.1-.4.2-.6.2-.7.4-1.4.5-2.2z"/>
  <path d="m21.3 25.2c2 0 3.7-1.7 3.7-3.7s-1.7-3.7-3.7-3.7-3.7 1.7-3.7 3.7 1.7 3.7 3.7 3.7z"/>
  <path d="m107.5 12.5-.6-1.5-.6-1.5-7 3.7 1 2.5z"/>
  <path d="m58.1 12.6h-5.7v17.8h4.8v-6.2h1.8c4.4 0 7.1-2.2 7.1-5.7 0-4.1-2.5-5.9-8-5.9zm.3 8.2h-1.2v-4.9h1.2c1.6 0 2.9.6 2.9 2.4.1 1.9-1.3 2.5-2.9 2.5z"/>
  <path d="m74.3 16.8c-4.1 0-7.2 2.6-7.2 7s3.1 7 7.2 7 7.2-2.6 7.2-7c0-4.5-3.1-7-7.2-7zm0 10.7c-2 0-2.8-1.8-2.8-3.7 0-2 .8-3.8 2.8-3.8s2.8 1.8 2.8 3.8c-.1 1.9-.9 3.7-2.8 3.7z"/>
  <path d="m141.4 16.8c-4.1 0-7.2 2.6-7.2 7s3.1 7 7.2 7 7.2-2.6 7.2-7c0-4.5-3.1-7-7.2-7zm0 10.7c-2 0-2.8-1.8-2.8-3.7 0-2 .8-3.8 2.8-3.8s2.8 1.8 2.8 3.8c0 1.9-.8 3.7-2.8 3.7z"/>
  <path d="m96.1 17.1h-4.6l-3.6 5.6v-11.5h-4.2v19.2h4.2v-6.6l3.4 6.6h5.1l-4.6-7.2z"/>
  <path d="m103.5 16.8c-3.9 0-6.6 2.6-6.6 7s3.1 7 7.2 7c1.6 0 3.2-.2 4.5-.8v-3.2c-1.3.7-2.6 1-3.8 1-2.1 0-3.4-.7-3.6-2.6h8.6v-.8c0-4.1-1.7-7.6-6.3-7.6zm-2.3 5.7c.1-1.5.8-2.8 2.4-2.8 1.7 0 2.4 1.3 2.4 2.8z"/>
  <path d="m196.3 16.8c-3.9 0-6.6 2.6-6.6 7s3.1 7 7.2 7c1.6 0 3.2-.2 4.5-.8v-3.2c-1.3.7-2.6 1-3.8 1-2.1 0-3.4-.7-3.6-2.6h8.6v-.8c0-4.1-1.7-7.6-6.3-7.6zm-2.3 5.7c.1-1.5.8-2.8 2.4-2.8 1.7 0 2.4 1.3 2.4 2.8z"/>
  <path d="m238.5 16.8c-3.9 0-6.6 2.6-6.6 7s3.1 7 7.2 7c1.6 0 3.2-.2 4.5-.8v-3.2c-1.3.7-2.6 1-3.8 1-2.1 0-3.4-.7-3.6-2.6h8.6v-.8c-.1-4.1-1.7-7.6-6.3-7.6zm-2.4 5.7c.1-1.5.8-2.8 2.4-2.8 1.7 0 2.4 1.3 2.4 2.8z"/>
  <path d="m127.9 16.8c-1.7 0-3.2.8-4.2 2.6-.6-1.7-2-2.6-3.7-2.6-1.9 0-3.5.8-4.3 2.8v-2.5h-3.7v13.3h4.1v-5.6c0-2.9.9-4.2 2.3-4.2 1.2 0 1.6 1.1 1.6 2.6v7.2h4.1v-5.6c0-2.9.9-4.2 2.3-4.2 1.2 0 1.6 1.1 1.6 2.6v7.2h4.1v-7.9c0-3.5-.8-5.7-4.2-5.7z"/>
  <path d="m159.3 16.7c-2 0-3.7.8-4.5 2.8v-2.5h-3.9v13.3h4.3v-5.6c0-2.9.9-4.2 2.7-4.2 1.2 0 2 .8 2 3.4v6.4h4.3v-8.3c-.2-2.7-1.5-5.3-4.9-5.3z"/>
  <path d="m213.2 16.7c-2 0-3.7.8-4.5 2.8v-2.5h-3.9v13.3h4.3v-5.6c0-2.9.9-4.2 2.7-4.2 1.2 0 2 .8 2 3.4v6.4h4.3v-8.3c-.1-2.7-1.5-5.3-4.9-5.3z"/>
  <path d="m183.9 27.2c-3.2 0-5.5-2.1-5.5-5.6 0-3.3 2-5.8 5.2-5.8 1.5 0 2.9.4 4.3 1.2l.4-3.9c-1.6-.5-3.2-.9-4.9-.9-5.5 0-9.5 3.1-9.5 9.3 0 6.7 5.1 9.1 9.5 9.1 2.3 0 3.7-.4 4.9-.7l-.2-3.7c-1.3.6-2.8 1-4.2 1z"/>
  <path d="m228.8 27.7c-1.5 0-1.8-.8-1.8-2.4v-4.9h3.2v-3.2h-3.2v-4.4l-4.5 1.4v3h-2.7v3.2h2.6v5.4c0 3.2 1 5 5.1 5 1.1 0 2-.2 2.9-.2l-.2-3c-.5 0-1 .1-1.4.1z"/>
  <path d="m254.5 16.8c-1.9 0-2.9 1.1-3.7 2.8v-2.5h-3.9v13.3h4.3v-5.6c0-2.6 1.1-4.2 3.1-4.2.5 0 1 0 1.5.2l.2-3.8c-.4-.1-1-.2-1.5-.2z"/>
  <path d="m38.8 39.8h-.7v2.2h-.6v-2.2h-.7v-.5h2.1v.5zm3.2 2.2h-.5v-2.2l-.8 2.2h-.3l-.7-2.2v2.2h-.5v-2.7h.8l.6 1.6.6-1.6h.8z"/>
  <path d="m23.4 19.9c-.4-.4-1-.6-1.6-.6-1.4 0-2.6 1.2-2.6 2.6 0 .6.2 1.1.5 1.5-.6-.5-1-1.2-1-2 0-1.4 1.2-2.6 2.6-2.6.9.1 1.6.5 2.1 1.1z" fill="#fff"/>
</svg>
