<?xml version='1.0' encoding='utf-8'?>
<svg aria-hidden="true" xmlns="http://www.w3.org/2000/svg" viewBox="-11 0 1038 1024"><path fill="currentColor" d="M967 417q-3-20-20.5-34.5T906 368q-5 0-11 .5t-11 3.5q-29 8-49 17t-42 21q-15 5-30 13t-35 17v-4q-3-20-11-38t-19-38q20-21 43-55 24-35 45-74.5t38-81.5q16-41 22-77V39l-12-28q-2-5-10.5-8T804 0q-9 0-22.5 3.5T751 15q-34 13-68 37-33 24-62.5 52.5T567 162q-24 30-40 54-23-8-48-11.5t-50-3.5q-32 0-62.5 5.5T307 224q-14-24-36-53-22-28-50-55.5T161 64q-32-23-66-37-20-9-33-12.5T38 11t-18 4.5T8 23Q-1 34-.5 50T0 83q4 36 19 77t35 79.5T96 311t41 53q-9 17-14.5 36t-8.5 36q-3 29 0 58.5t11 55.5q-8 0-16.5 2.5T91 558q-28 14-42 42.5t0 59.5q12 26 28 41.5t33 26.5v23q-28 34-17 86t28 81q6 11 31.5 45t71.5 34q8 0 16.5-2t17.5-5q3 0 4-2t3-2q37 17 79 27.5t85 10.5q39 0 78-8.5t73-25.5q9 3 17.5 5t16.5 2q37 0 68.5-25.5T728 918q12-23 21-56t6-62q5-3 11-4t11-3q9-3 16.5-8.5T804 774q6-12 4.5-21t-4.5-17q-3-3-4-8.5t-4-14.5q0-3-2-8t-5-11q6 0 9.5-.5t9.5-3.5q8 0 21-2t36-5q25-6 43.5-9t24.5-3q23-5 34-21.5t11-38.5q-2-29-5-86t-6-108zM667 129q12-11 24.5-21T713 95q3 0 5.5-2l2.5-2 2 .5 5 3.5q12 20 11 58t-7 52q-20 40-43 71.5T649 322q-18-20-37.5-37T569 254q14-25 42-59.5t56-65.5zm-557 87q-6-14-7-51.5t11-54.5q3-3 5-3.5l2-.5q3 0 4 .5t4 3.5q8 6 21 14.5t24 19.5q37 37 60 67.5t31 50.5q-22 14-42 31t-37 37q-20-20-39.5-51.5T110 216zm144 709q-3 6-4.5 11.5T243 944l-4 4q-3 3-7.5 3.5t-7.5.5q-17 0-34.5-16T163 903q-3-6-7.5-14t-7.5-17q-9-25-11-46.5t3-32.5q0-3 2-4t2-4q3-3 6.5-3.5t8.5-.5q20 0 41 16.5t35 44.5q12 14 16 30t7 31q0 5-.5 11t-3.5 11zm451-91q0 6-1.5 11.5T702 857q0 3-2 7.5t-2 7.5q-3 12-7.5 18.5T683 903q-12 20-32 32.5T614 948q-2 0-7-.5t-8-3.5h-7q-3-2-6-5l-6-6-3.5-6-.5-5v-31q0-8 3-19t9-22q3-6 4-9.5t3-6.5l12-16 15-14q11-11 25-17t28-6h8q5 0 8.5 2.5t6.5 5.5l4 7q2 6 4 16.5t-1 21.5zm38-75q-5 2-15 5t-19 6q3-6 1-8.5t-5-2.5q-2-6-2.5-11.5t-.5-7.5q0-3-.5-8t-3.5-8h4q8-5 16.5-11t17.5-11q3 11 5.5 19.5T747 736q3 8 4 12.5t-8 10.5zm-64-50q-12 3-31 4t-22 15q0 14 20.5 16t28.5-1q-17 12-40 19t-43 27q-15 17-29 40t-17 43q-3 23 1.5 43t-1.5 26q-8 17-54 21.5t-63 4.5q-26 0-53.5-5T322 948q-22-8-27-10.5T284 918q-2-9-1.5-21t-1.5-21q-6-43-36-88.5T167 740q0-12 23.5-7t29.5-12q3-17-24.5-18.5T159 698q-17-6-40.5-24T95 633q0-31 31.5-31.5T178 607q46 11 49 9t-22-36q8 0 14.5 1.5T231 580q23-3 36-22t10-42-20.5-37.5T216 466q-14 3-24.5 11.5T178 501v3q-5-31-2-62t17-59q36-68 104-100 69-31 141.5-27T575 300q63 39 89 113 11 37 9 65t-13 57v-8q0-6-2-11.5t-2-11.5q-3-8-8.5-14T633 478q-22-12-45.5-4T550 504q-3 3-3.5 6.5t-.5 9.5q-3 8-3 18.5t3 19.5q0 2 2.5 7t5.5 8l5.5 5.5 5.5 5.5 6 5.5 5 2.5h4q12 5 23 5t23-5q3-3 7.5-6t7.5-6q-3 6-6 10t-5 9q-20 29-5.5 24.5T667 611q23-6 56.5-4.5T751 645q-3 22-27.5 39T679 709zm227-95q-2 0-8.5 2t-17.5 2q-31 6-46.5 8.5T781 637q3-20-7.5-38T743 573q-5 0-13.5-2t-20.5-2h-15q9-14 14-31t5-34q63-25 99.5-45t78.5-34h8q8 0 11.5 6t3.5 9q3 43 5.5 86t2.5 66q0 8-3.5 14t-12.5 8zM284 364q-19 0-36 15t-17 38q0 20 15.5 36.5T284 470q23-3 38.5-18t15.5-35-15.5-36.5T284 364zm4 34q-3 6-7.5 6.5T273 402t-3-7.5 3-7.5 7.5-5 7.5 1 3 7.5-3 7.5zm304 19q0-23-15.5-38T539 364q-23 0-38.5 15T485 417q-2 23 14.5 38t39.5 15q22 0 37.5-15t15.5-38zm-57-23q-3 6-8 7t-7 1q-3 0-3-4.5t3-10.5q2-6 7-7t8-1q3 3 3 8t-3 7zM394 523q9-8 15.5-8.5T425 520q11 8 25.5 8.5T470 512q3-6-2-7.5t-5 3.5q-3 9-12.5 9t-18.5-9q-11-8-20-8t-18 8q-11 9-19.5 10T360 504q-3-2-6.5-1.5t-.5 5.5q5 20 19 20.5t22-5.5zm23-41q3 0 4-2.5t4-5.5q0-3-9.5-3t-9.5 3l.5 2.5 3.5 5.5h7zm46 132q-23 3-48 3.5t-51 .5q-17 0-12 6.5t16 12.5q17 12 46 12t49-12q11-8 11-15.5t-11-7.5z"></path></svg>