<?xml version='1.0' encoding='utf-8'?>
<svg aria-hidden="true" xmlns="http://www.w3.org/2000/svg" viewBox="-10 0 1044 1024"><path fill="currentColor" d="M512 0Q406 0 312 40q-93 40-162.5 109.5T40 312Q0 406 0 512t40 200q40 93 109.5 162.5T312 984q94 40 200 40t200-40q93-40 162.5-109.5T984 712q40-94 40-200t-40-200q-40-93-109.5-162.5T712 40Q618 0 512 0zm355 768q-9-60-45-104-37-45-88-74t-109-43q-59-15-113-15-55 0-115 15-59 15-110 44.5T200 665q-35 44-43 103-41-54-63-119T72 512q0-91 34-171 35-80 95-140t140-95q80-34 171-34t171 34q80 35 140 95t95 140q34 80 34 171 0 72-22 137t-63 119zM631 232q-12-13-25.5-21.5T577 195q-16-8-31.5-11t-33.5-3-33.5 3-31.5 11q-15 7-28.5 15.5T393 232q-13 13-21.5 26T355 287q-8 15-11 31t-3 34q0 17 3 33t11 31q8 16 16.5 29t21.5 26q12 13 25.5 21.5T447 509q16 7 31.5 10t33.5 3 33.5-3 31.5-10q15-8 28.5-16.5T631 471q13-13 21.5-26t16.5-29q8-15 11-31t3-33q0-18-4.5-34t-9.5-31q-8-16-16.5-29T631 232z"></path></svg>