<?xml version='1.0' encoding='utf-8'?>
<svg aria-hidden="true" xmlns="http://www.w3.org/2000/svg" viewBox="-10 0 1191 1024"><path fill="currentColor" d="M287 219q10 47 20 93t19.5 91.5T345 493q9 45 18 89h19q76-9 153-17 76-7 152-15l152-16 151-16q8 0 17.5-11t12.5-20q9-22 13-46.5t10-47.5q8-43 16.5-85.5T1077 219H287zm102 450q0 42 6 49t43 7h556q20 0 35 6t18 28q5 20-7.5 35t-38.5 15H404q-54 0-70.5-14.5T306 729q-14-78-29-154-15-77-30.5-153T215 270q-17-76-34-153 0-8-2-15.5T174 83H53q-23 0-38-8T0 42Q0 19 15 9.5T53 0h125q34 0 50.5 15T253 64q17 63 19.5 66t67.5 6h748q57 0 72.5 20.5t7.5 73.5q-15 74-31.5 149.5T1103 529q-8 37-26 51.5t-61 20.5q-77 7-155 15-77 7-154 15.5T554 648q-77 9-153 17-3 0-6 .5t-6 3.5zm518 189q34 0 58.5 24.5T990 941q0 31-24 57t-55 26q-34 3-60.5-23T824 941q0-31 24.5-57t58.5-26zm-363 83q0 34-24.5 58.5T461 1024t-56.5-24.5T382 941t24.5-58.5T465 858q31 0 55 24.5t24 58.5z"></path></svg>