<?xml version='1.0' encoding='utf-8'?>
<svg xmlns="http://www.w3.org/2000/svg" viewBox="-10 0 1044 1024"><path fill="currentColor" d="M512 978q-97 0-181-37-85-36-148.5-99.5T83 693q-37-84-37-181t37-181q36-85 99.5-148.5T331 83q84-37 181-37t181 37q85 36 148.5 99.5T941 331q37 84 37 181t-37 181q-36 85-99.5 148.5T693 941q-84 37-181 37zm0-978Q405 0 312 40T149.5 149.5 40 312 0 512t40 200 109.5 162.5T312 984t200 40 200-40 162.5-109.5T984 712t40-200-40-200-109.5-162.5T712 40 512 0zM218 429h43l66 86v-86h46v166h-39l-70-90v90h-49l3-166zm185 0h132v40h-86v26h80v34h-80v26h89v40H406V429h-3zm195 0 30 96 33-96h39l33 96 30-96h46l-56 166h-40l-33-96-33 96h-36l-56-166h43zm-86 499q87 0 163-33 75-33 131.5-89.5T896 673q32-76 32-161 0-87-33-163-33-75-89.5-131.5T673 128q-76-32-161-32t-161 32q-76 33-132.5 89.5T129 349q-33 76-33 163t32 163q33 75 89.5 131.5T349 896q76 32 163 32z"></path></svg>